<svg width="1441" height="1418" viewBox="0 0 1441 1418" fill="none" xmlns="http://www.w3.org/2000/svg">
<path fill-rule="evenodd" clip-rule="evenodd" d="M655.584 2.8259C656.703 4.63469 649.024 14.6983 638.516 25.1905C600.795 62.8536 587.883 106.836 601.449 151.432C610.396 180.844 625.545 202.919 663.702 242.154C756.755 337.838 792.573 393.881 803.338 460.663C807.989 489.503 807.648 514.112 802.2 542.374C794.206 583.856 784.858 604.668 734.603 692.851C707.781 739.918 694.313 773.571 685.87 814.627C675.118 866.913 683.6 907.765 721.6 986.738C736.366 1017.42 748.1 1048.66 756.979 1080.91C759.825 1091.24 760.479 1089.16 764.141 1058.18C772.269 989.436 792.784 935.546 829.653 886.095C840.961 870.93 871.703 836.589 897.972 809.782C952.66 753.976 971.228 730.078 984.237 698.78C992.475 678.958 993.467 672.662 993.627 639.269C993.844 592.789 988.579 575.27 952.247 501.652C922.026 440.416 912.344 416.139 905.852 385.324C878.529 255.631 969.683 132.714 1085.2 143.483C1128.09 147.483 1162.27 171.176 1179.71 208.992C1196.15 244.622 1190.12 276.81 1162.35 301.805C1146.89 315.717 1123.97 324.102 1118.11 317.993C1114.96 314.717 1115.47 313.086 1120.57 310.135C1162.82 285.659 1163.63 232.688 1122.18 205.296C1111.18 198.029 1105.02 196.428 1087.36 196.236C1072.75 196.077 1065.46 197.318 1064.52 200.12C1061.58 208.914 1053.09 214.188 1044.62 212.467C1032.23 209.95 1023.34 217.737 1026.09 228.69C1028.78 239.394 1020.64 249.584 1009.39 249.584C1003.52 249.584 1000.39 252.468 996.69 261.317C992.29 271.835 992.31 274.154 996.882 283.776C1002.43 295.46 1000.27 306.478 990.888 314.252C984.364 319.659 983.626 343.758 989.984 343.758C996.277 343.758 1007.61 356.978 1010.18 367.324C1011.67 373.332 1010.63 378.979 1007.02 384.483C1001.93 392.244 1002.02 393.368 1008.76 405.338C1014.67 415.837 1017.55 417.938 1025.7 417.707C1044.26 417.181 1068.72 453.11 1056.07 462.339C1048.88 467.593 1048.98 467.976 1062.57 486.87C1072.12 500.135 1075.81 502.999 1081.53 501.567C1088.98 499.7 1104.57 513.128 1112.22 528.014C1118.15 539.549 1117.67 558.403 1111.34 563.027C1106.16 566.807 1106.2 568.427 1111.89 589.185C1115.23 601.356 1119.3 611.631 1120.93 612.017C1122.56 612.407 1127.8 613.579 1132.57 614.625C1144.57 617.255 1153.2 639.655 1150.11 660.202C1147.59 677.023 1141.41 684.732 1130.45 684.732C1123.99 684.732 1122.53 686.82 1120.75 698.533C1119.61 706.123 1117.9 716.355 1116.96 721.265C1115.83 727.159 1116.63 730.195 1119.32 730.195C1134.93 730.195 1140.05 756.746 1129.07 780.871C1120.54 799.644 1110.38 808.132 1096.45 808.132C1087.14 808.132 1083.11 810.334 1075.92 819.326C1065.71 832.111 1065.13 834.111 1071.67 834.111C1078.4 834.111 1086.49 846.987 1086.49 857.694C1086.49 888.303 1041.25 927.113 1023.1 912.071C1016.89 906.927 1012.37 910.434 1002.43 928.1C996.372 938.859 995.926 941.275 999.985 941.275C1002.72 941.275 1006.47 944.1 1008.32 947.555C1020.56 970.381 997.1 1022.46 974.584 1022.46C967.871 1022.46 966.079 1024.44 964.323 1033.79C961.513 1048.74 967.54 1081.79 976.116 1098.44C984.26 1114.26 1003.24 1134.78 1015.81 1141.37C1026.06 1146.74 1024.75 1148.61 1033.07 1116.63C1040.83 1086.81 1057.04 1053.95 1078.4 1024.75C1093.96 1003.47 1096.43 998.208 1094.66 990.138C1092.15 978.72 1096.37 969.702 1111.79 953.595C1123.91 940.934 1139.31 935.179 1146.07 940.784C1148.97 943.187 1153.68 941.083 1163.01 933.205C1173.41 924.431 1175.14 921.485 1171.87 918.147C1166.37 912.529 1166.76 904.001 1173.08 891.785C1181.39 875.746 1190.48 869.689 1204.82 870.628C1215.24 871.313 1218.59 869.936 1223.99 862.743C1230.17 854.531 1230.24 853.401 1225.38 843.152C1221.45 834.897 1220.91 829.172 1223.12 819.391C1226.22 805.642 1237.55 793.756 1244.87 796.562C1247.56 797.595 1250.56 795.003 1252.47 789.999C1256.47 779.484 1256.55 762.669 1252.59 762.669C1239.03 762.669 1233.29 721.817 1245.64 713.179C1254.32 707.11 1251.4 682.93 1241.35 677.585C1230.14 671.626 1226.56 664.527 1226.45 648.092C1226.38 638.022 1223.41 626.776 1218 616.118C1197.26 575.25 1189.88 511.719 1201.69 475.744C1209.84 450.944 1232.97 425.238 1256.07 415.314C1290.74 400.421 1330.44 407.121 1356.3 432.233C1383.57 458.728 1386.84 501.324 1363.52 526.423C1349.02 542.023 1335.78 534.359 1348.41 517.684C1351.04 514.216 1353.19 505.11 1353.19 497.443C1353.19 485.444 1351.27 481.534 1339.36 469.292C1318.46 447.791 1292.69 446.115 1272.35 464.94C1261.77 474.724 1258.36 485.077 1258.46 507.192C1258.56 533.132 1261.35 540.679 1298.23 614.914C1338.72 696.38 1347.01 725.204 1347.29 785.401C1347.5 831.289 1340.63 866.845 1324.05 905.755C1311.46 935.293 1297.38 956.427 1256.62 1006.94C1210.01 1064.72 1195.91 1095 1197.72 1133.39C1198.57 1151.17 1199.59 1154.1 1205.26 1154.92C1208.97 1155.45 1219.47 1150.16 1229.43 1142.74C1239.11 1135.53 1245.5 1130 1255 1130C1264.5 1130 1269.14 1139.46 1281 1146.5C1329.35 1175.18 1369.25 1183.7 1413.58 1180.58C1428.66 1179.52 1441 1179.9 1441 1181.44C1441 1187.36 1411.62 1219.85 1394.81 1232.52C1353.61 1263.58 1290.06 1285.5 1241.2 1285.5C1217.16 1285.5 1179.77 1277.61 1148.25 1265.9C1102.57 1248.94 1085.93 1244.25 1062.73 1241.81C1035.26 1238.92 1014.47 1243.35 984.045 1258.58C938.688 1281.29 910.506 1287.19 872.535 1281.91C847.131 1278.39 837.576 1274.75 779.97 1246.69L745.017 1229.66L714.923 1230.79C686.52 1231.85 682.819 1232.86 649.053 1248.74C594.089 1274.59 589.318 1276.12 557.988 1278.04C519.018 1280.42 497.136 1274.64 445.421 1248.33C377.515 1213.77 352.049 1210.28 304.305 1228.99C214.377 1264.22 189.015 1269.57 142.679 1263.12C98.0212 1256.9 47.9415 1231.85 14.6537 1199.08C-0.157504 1184.5 -4.94164 1172.28 5.90169 1176.72C17.4898 1181.47 56.8758 1182.38 79.4146 1178.42C108.526 1173.3 133.342 1163.41 164.649 1144.43C178.084 1136.29 182.468 1129.74 191.484 1129.62C200.5 1129.5 204.763 1136.38 218.052 1144.63C247.375 1162.86 261.579 1165.63 274.311 1155.6C301.927 1133.87 306.269 1087.58 285.662 1034.63C278.605 1016.49 278.1 1016.01 268.164 1017.87C237.752 1023.57 200.278 971.735 214.979 944.308C216.833 940.853 220.491 938.027 223.11 938.027C230.102 938.027 228.957 932.52 219.356 919.949C212.198 910.577 208.799 908.801 198.034 908.801C187.884 908.801 183.334 906.729 176.097 898.818C166.922 888.791 159.575 870.271 159.575 857.174C159.575 843.538 168.509 827.948 177.629 825.662C185.893 823.59 186.248 822.7 184.348 808.856C183.246 800.816 182.342 791.519 182.342 788.193C182.342 784.186 180 782.153 175.381 782.153C164.776 782.153 159.793 772.691 159.679 752.326C159.517 723.428 170.34 704.216 186.788 704.216C192.98 704.216 195.839 700.963 201.423 687.548C209.749 667.541 210.009 663.325 203.072 660.669C198.844 659.049 198.102 655.356 199.368 642.221C201.153 623.665 208.9 611.351 224.547 602.203C233.345 597.06 236.285 596.68 241.599 599.992C245.131 602.197 248.299 603.532 248.637 602.96C248.976 602.392 253.275 595.926 258.193 588.597C265.637 577.494 266.782 573.1 265.052 562.293C261.413 539.555 277.866 517.587 298.115 518.161C307.921 518.437 310.686 516.71 317.942 505.763C325.809 493.894 326.014 492.653 321.028 487.152C309.947 474.926 318.82 448.833 335.169 445.57C343.255 443.956 344.751 441.991 345.596 431.879C346.361 422.737 344.842 418.564 338.867 413.401C328.912 404.799 327.37 381.915 336.308 375.391C344.263 369.581 340.454 354.913 329.11 347.674C315.249 338.832 312.169 333.344 313.958 320.685C315.961 306.514 310.458 300.535 290.537 295.239C282.956 293.222 275.232 288.712 273.349 285.195C270.461 279.807 266.516 278.82 248.088 278.882C233.664 278.927 221.601 281.061 212.559 285.159C182.95 298.58 154.31 338.679 150.553 371.981C148.351 391.481 139.619 390.114 136.067 369.708C126.977 317.457 159.487 258.683 210.92 234.39C246.611 217.529 301.439 220.9 338.249 242.213C374.295 263.087 406.22 305.16 421.626 352.1C430.187 378.177 431.143 385.363 431.11 423.319C431.062 486.581 424.215 506.036 368.33 601.726C325.952 674.295 315.841 701.213 315.753 741.691C315.642 792.603 328.17 824.402 370.724 881.198C450.888 988.193 488.121 1059.34 493.565 1115.92C494.645 1127.14 496.652 1137.02 498.027 1137.87C502.33 1140.52 521.337 1119 528.216 1103.68C537.439 1083.14 537.095 1049.63 527.152 1000.27C519.272 961.152 518.842 960.119 508.669 955.875C492.726 949.224 487.2 935.358 488.56 905.42C489.773 878.753 495.829 866.585 507.889 866.585C515.532 866.585 516.273 865.013 519.008 843.042C521.181 825.606 520.891 824.369 514.64 824.369C491.76 824.369 493.243 769.349 516.683 748.537C523.253 742.704 533.803 740.658 542.913 743.448C545.518 744.247 551.395 738.353 557.135 729.182L566.915 713.559L560.011 707.136C551.772 699.472 551.6 696.803 558.134 677.659C567.237 650.982 591.877 633.687 608.285 642.458C614.113 645.569 616.299 644.617 623.926 635.638C640.942 615.602 641.674 613.965 634.61 611.728C622.059 607.75 622.222 589.233 634.984 568.561C643.973 554.006 657.396 547.349 668.929 551.726C678.998 555.548 680.136 554.473 686.553 535.054C690.531 523.023 690.336 522.165 682.081 515.684C675.693 510.666 673.446 505.964 673.446 497.612C673.446 482.629 681.567 467.619 691.77 463.745C699.393 460.852 699.852 459.55 697.744 446.836C694.827 429.219 694.118 428.19 684.927 428.19C668.298 428.19 649.388 389.955 661.604 381.038C668.802 375.78 668.519 374.563 656.641 359.803C649.743 351.233 643.726 347.005 638.431 347.005C628.121 347.005 611.651 329.453 611.651 318.467C611.651 312.34 605.306 303.958 587.932 287.15C567.5 263 562 261 551.343 230.1C540.686 199.2 539 165 538.474 153.787C537.947 142.573 538.513 111.493 550.67 86.0658C568.558 48.6626 600.382 19.1407 639.296 3.86182C651.815 -1.05471 653.132 -1.13914 655.584 2.8259ZM403.804 1268.91C413.476 1272.29 433.358 1281.72 447.984 1289.86C519.454 1329.66 570.021 1330.52 646.543 1293.24C666.945 1283.31 691.36 1273.99 701.855 1272.15C728.31 1267.5 762.17 1274.93 791.34 1291.79C861.243 1332.2 914.5 1337.32 977.082 1309.65C1056.28 1274.64 1070.55 1274.41 1156.42 1306.85C1188.46 1318.95 1229.43 1321 1243.58 1320.51C1257.73 1320.01 1303.37 1313.83 1302.5 1316.5C1300.14 1323.72 1260.86 1353.7 1236.12 1363.23C1189.58 1381.15 1149.32 1383.8 1089.5 1372.89C1034.27 1362.82 1020.71 1364.7 975.446 1388.75C929.422 1413.21 904.893 1420.02 871.839 1417.51C842.542 1415.3 835.478 1413.13 787.278 1391.55C752.589 1376.01 748.107 1374.82 725.484 1375.05C704.187 1375.26 697.374 1376.98 671.82 1388.55C627.334 1408.68 612.595 1412.93 581.125 1414.65C544.738 1416.64 522.475 1411.87 492.128 1395.58C479.161 1388.61 457.389 1376.89 443.752 1369.52C407.017 1349.67 392.902 1349.39 310.809 1366.88C278.344 1373.79 226.691 1367.03 190.472 1351.13C158.534 1337.11 126.024 1314.66 130.776 1309.92C131.546 1309.15 142.367 1310.02 154.82 1311.86C180.058 1315.58 214.624 1313.58 239.258 1306.97C248.202 1304.57 270.887 1295.65 289.669 1287.16C308.451 1278.66 329.673 1269.84 336.828 1267.55C356.209 1261.37 383.841 1261.93 403.804 1268.91Z" fill="#0D6EFD"/>
</svg>
