<svg width="1884" height="1847" viewBox="0 0 1884 1847" fill="none" xmlns="http://www.w3.org/2000/svg">
<rect width="1884" height="1847" rx="372" fill="#1E1E1E"/>
<path fill-rule="evenodd" clip-rule="evenodd" d="M876.584 198.826C877.703 200.635 870.024 210.698 859.516 221.191C821.795 258.854 808.883 302.836 822.449 347.432C831.396 376.844 846.545 398.919 884.702 438.154C977.755 533.838 1013.57 589.881 1024.34 656.663C1028.99 685.503 1028.65 710.112 1023.2 738.374C1015.21 779.856 1005.86 800.668 955.603 888.851C928.781 935.918 915.313 969.571 906.87 1010.63C896.118 1062.91 904.6 1103.76 942.6 1182.74C957.366 1213.42 969.1 1244.66 977.979 1276.91C980.825 1287.24 981.479 1285.16 985.141 1254.18C993.269 1185.44 1013.78 1131.55 1050.65 1082.1C1061.96 1066.93 1092.7 1032.59 1118.97 1005.78C1173.66 949.976 1192.23 926.078 1205.24 894.78C1213.48 874.958 1214.47 868.662 1214.63 835.269C1214.84 788.789 1209.58 771.27 1173.25 697.652C1143.03 636.416 1133.34 612.139 1126.85 581.324C1099.53 451.631 1190.68 328.714 1306.2 339.483C1349.09 343.483 1383.27 367.176 1400.71 404.992C1417.15 440.622 1411.12 472.81 1383.35 497.805C1367.89 511.717 1344.97 520.102 1339.11 513.993C1335.96 510.717 1336.47 509.086 1341.57 506.135C1383.82 481.659 1384.63 428.688 1343.18 401.296C1332.18 394.029 1326.02 392.428 1308.36 392.236C1293.75 392.077 1286.46 393.318 1285.52 396.12C1282.58 404.914 1274.09 410.188 1265.62 408.467C1253.23 405.95 1244.34 413.737 1247.09 424.69C1249.78 435.394 1241.64 445.584 1230.39 445.584C1224.52 445.584 1221.39 448.468 1217.69 457.317C1213.29 467.835 1213.31 470.154 1217.88 479.776C1223.43 491.46 1221.27 502.478 1211.89 510.252C1205.36 515.659 1204.63 539.758 1210.98 539.758C1217.28 539.758 1228.61 552.978 1231.18 563.324C1232.67 569.332 1231.63 574.979 1228.02 580.483C1222.93 588.244 1223.02 589.368 1229.76 601.338C1235.67 611.837 1238.55 613.938 1246.7 613.707C1265.26 613.181 1289.72 649.11 1277.07 658.339C1269.88 663.593 1269.98 663.976 1283.57 682.87C1293.12 696.135 1296.81 698.999 1302.53 697.567C1309.98 695.7 1325.57 709.128 1333.22 724.014C1339.15 735.549 1338.67 754.403 1332.34 759.027C1327.16 762.807 1327.2 764.427 1332.89 785.185C1336.23 797.356 1340.3 807.631 1341.93 808.017C1343.56 808.407 1348.8 809.579 1353.57 810.625C1365.57 813.255 1374.2 835.655 1371.11 856.202C1368.59 873.023 1362.41 880.732 1351.45 880.732C1344.99 880.732 1343.53 882.82 1341.75 894.533C1340.61 902.123 1338.9 912.355 1337.96 917.265C1336.83 923.159 1337.63 926.195 1340.32 926.195C1355.93 926.195 1361.05 952.746 1350.07 976.871C1341.54 995.644 1331.38 1004.13 1317.45 1004.13C1308.14 1004.13 1304.11 1006.33 1296.92 1015.33C1286.71 1028.11 1286.13 1030.11 1292.67 1030.11C1299.4 1030.11 1307.49 1042.99 1307.49 1053.69C1307.49 1084.3 1262.25 1123.11 1244.1 1108.07C1237.89 1102.93 1233.37 1106.43 1223.43 1124.1C1217.37 1134.86 1216.93 1137.27 1220.98 1137.27C1223.72 1137.27 1227.47 1140.1 1229.32 1143.56C1241.56 1166.38 1218.1 1218.46 1195.58 1218.46C1188.87 1218.46 1187.08 1220.44 1185.32 1229.79C1182.51 1244.74 1188.54 1277.79 1197.12 1294.44C1205.26 1310.26 1224.24 1330.78 1236.81 1337.37C1247.06 1342.74 1245.75 1344.61 1254.07 1312.63C1261.83 1282.81 1278.04 1249.95 1299.4 1220.75C1314.96 1199.47 1317.43 1194.21 1315.66 1186.14C1313.15 1174.72 1317.37 1165.7 1332.79 1149.6C1344.91 1136.93 1360.31 1131.18 1367.07 1136.78C1369.97 1139.19 1374.68 1137.08 1384.01 1129.2C1394.41 1120.43 1396.14 1117.49 1392.87 1114.15C1387.37 1108.53 1387.76 1100 1394.08 1087.78C1402.39 1071.75 1411.48 1065.69 1425.82 1066.63C1436.24 1067.31 1439.59 1065.94 1444.99 1058.74C1451.17 1050.53 1451.24 1049.4 1446.38 1039.15C1442.45 1030.9 1441.91 1025.17 1444.12 1015.39C1447.22 1001.64 1458.55 989.756 1465.87 992.562C1468.56 993.595 1471.56 991.003 1473.47 985.999C1477.47 975.484 1477.55 958.669 1473.59 958.669C1460.03 958.669 1454.29 917.817 1466.64 909.179C1475.32 903.11 1472.4 878.93 1462.35 873.585C1451.14 867.626 1447.56 860.527 1447.45 844.092C1447.38 834.022 1444.41 822.776 1439 812.118C1418.26 771.25 1410.88 707.719 1422.69 671.744C1430.84 646.944 1453.97 621.238 1477.07 611.314C1511.74 596.421 1551.44 603.121 1577.3 628.233C1604.57 654.728 1607.84 697.324 1584.52 722.423C1570.02 738.023 1556.78 730.359 1569.41 713.684C1572.04 710.216 1574.19 701.11 1574.19 693.443C1574.19 681.444 1572.27 677.534 1560.36 665.292C1539.46 643.791 1513.69 642.115 1493.35 660.94C1482.77 670.724 1479.36 681.077 1479.46 703.192C1479.56 729.132 1482.35 736.679 1519.23 810.914C1559.72 892.38 1568.01 921.204 1568.29 981.401C1568.5 1027.29 1561.63 1062.84 1545.05 1101.75C1532.46 1131.29 1518.38 1152.43 1477.62 1202.94C1431.01 1260.72 1416.91 1291 1418.72 1329.39C1419.57 1347.17 1420.59 1350.1 1426.26 1350.92C1429.97 1351.45 1440.47 1346.16 1450.43 1338.74C1460.11 1331.53 1466.5 1326 1476 1326C1485.5 1326 1490.14 1335.46 1502 1342.5C1550.35 1371.18 1590.25 1379.7 1634.58 1376.58C1649.66 1375.52 1662 1375.9 1662 1377.44C1662 1383.36 1632.62 1415.85 1615.81 1428.52C1574.61 1459.58 1511.06 1481.5 1462.2 1481.5C1438.16 1481.5 1400.77 1473.61 1369.25 1461.9C1323.57 1444.94 1306.93 1440.25 1283.73 1437.81C1256.26 1434.92 1235.47 1439.35 1205.05 1454.58C1159.69 1477.29 1131.51 1483.19 1093.54 1477.91C1068.13 1474.39 1058.58 1470.75 1000.97 1442.69L966.017 1425.66L935.923 1426.79C907.52 1427.85 903.819 1428.86 870.053 1444.74C815.089 1470.59 810.318 1472.12 778.988 1474.04C740.018 1476.42 718.136 1470.64 666.421 1444.33C598.515 1409.77 573.049 1406.28 525.305 1424.99C435.377 1460.22 410.015 1465.57 363.679 1459.12C319.021 1452.9 268.941 1427.85 235.654 1395.08C220.842 1380.5 216.058 1368.28 226.902 1372.72C238.49 1377.47 277.876 1378.38 300.415 1374.42C329.526 1369.3 354.342 1359.41 385.649 1340.43C399.084 1332.29 403.468 1325.74 412.484 1325.62C421.5 1325.5 425.763 1332.38 439.052 1340.63C468.375 1358.86 482.579 1361.63 495.311 1351.6C522.927 1329.87 527.269 1283.58 506.662 1230.63C499.605 1212.49 499.1 1212.01 489.164 1213.87C458.752 1219.57 421.278 1167.74 435.979 1140.31C437.833 1136.85 441.491 1134.03 444.11 1134.03C451.102 1134.03 449.957 1128.52 440.356 1115.95C433.198 1106.58 429.799 1104.8 419.034 1104.8C408.884 1104.8 404.334 1102.73 397.097 1094.82C387.922 1084.79 380.575 1066.27 380.575 1053.17C380.575 1039.54 389.509 1023.95 398.629 1021.66C406.893 1019.59 407.248 1018.7 405.348 1004.86C404.246 996.816 403.342 987.519 403.342 984.193C403.342 980.186 401 978.153 396.381 978.153C385.776 978.153 380.793 968.69 380.679 948.326C380.517 919.428 391.34 900.216 407.788 900.216C413.98 900.216 416.839 896.963 422.423 883.548C430.749 863.541 431.009 859.325 424.072 856.669C419.844 855.049 419.102 851.356 420.368 838.221C422.153 819.665 429.9 807.351 445.547 798.203C454.345 793.06 457.285 792.68 462.599 795.992C466.131 798.197 469.299 799.532 469.637 798.96C469.976 798.392 474.275 791.926 479.193 784.597C486.637 773.494 487.782 769.1 486.052 758.293C482.413 735.555 498.866 713.587 519.115 714.161C528.921 714.437 531.686 712.71 538.942 701.763C546.809 689.894 547.014 688.653 542.028 683.152C530.947 670.926 539.82 644.833 556.169 641.57C564.255 639.956 565.751 637.991 566.596 627.879C567.361 618.737 565.842 614.564 559.867 609.401C549.912 600.799 548.37 577.915 557.308 571.391C565.263 565.581 561.454 550.913 550.11 543.674C536.249 534.832 533.169 529.344 534.958 516.685C536.961 502.514 531.458 496.535 511.537 491.239C503.956 489.222 496.232 484.712 494.349 481.195C491.461 475.807 487.516 474.82 469.088 474.882C454.664 474.927 442.601 477.061 433.559 481.159C403.95 494.58 375.31 534.679 371.553 567.981C369.351 587.481 360.619 586.114 357.067 565.708C347.977 513.457 380.487 454.683 431.92 430.39C467.611 413.529 522.439 416.9 559.249 438.213C595.295 459.087 627.22 501.16 642.626 548.1C651.187 574.177 652.143 581.363 652.11 619.319C652.062 682.581 645.215 702.036 589.33 797.726C546.952 870.295 536.841 897.213 536.753 937.691C536.642 988.603 549.17 1020.4 591.724 1077.2C671.888 1184.19 709.121 1255.34 714.565 1311.92C715.645 1323.14 717.652 1333.02 719.027 1333.87C723.33 1336.52 742.337 1315 749.216 1299.68C758.439 1279.14 758.095 1245.63 748.152 1196.27C740.272 1157.15 739.842 1156.12 729.669 1151.87C713.726 1145.22 708.2 1131.36 709.56 1101.42C710.773 1074.75 716.829 1062.59 728.889 1062.59C736.532 1062.59 737.273 1061.01 740.008 1039.04C742.181 1021.61 741.891 1020.37 735.64 1020.37C712.76 1020.37 714.243 965.349 737.683 944.537C744.253 938.704 754.803 936.658 763.913 939.448C766.518 940.247 772.395 934.353 778.135 925.182L787.915 909.559L781.011 903.136C772.772 895.472 772.6 892.803 779.134 873.659C788.237 846.982 812.877 829.687 829.285 838.458C835.113 841.569 837.299 840.617 844.926 831.638C861.942 811.602 862.674 809.965 855.61 807.728C843.059 803.75 843.222 785.233 855.984 764.561C864.973 750.006 878.396 743.349 889.929 747.726C899.998 751.548 901.136 750.473 907.553 731.054C911.531 719.023 911.336 718.165 903.081 711.684C896.693 706.666 894.446 701.964 894.446 693.612C894.446 678.629 902.567 663.619 912.77 659.745C920.393 656.852 920.852 655.55 918.744 642.836C915.827 625.219 915.118 624.19 905.927 624.19C889.298 624.19 870.388 585.955 882.604 577.038C889.802 571.78 889.519 570.562 877.641 555.803C870.743 547.233 864.726 543.005 859.431 543.005C849.121 543.005 832.651 525.453 832.651 514.467C832.651 508.34 826.306 499.958 808.932 483.15C788.5 459 783 457 772.343 426.1C761.686 395.2 760 361 759.474 349.787C758.947 338.573 759.513 307.493 771.67 282.066C789.558 244.663 821.382 215.141 860.296 199.862C872.815 194.945 874.132 194.861 876.584 198.826ZM624.804 1464.91C634.476 1468.29 654.358 1477.72 668.984 1485.86C740.454 1525.66 791.021 1526.52 867.543 1489.24C887.945 1479.31 912.36 1469.99 922.855 1468.15C949.31 1463.5 983.17 1470.93 1012.34 1487.79C1082.24 1528.2 1135.5 1533.32 1198.08 1505.65C1277.28 1470.64 1291.55 1470.41 1377.42 1502.85C1409.46 1514.95 1450.43 1517 1464.58 1516.51C1478.73 1516.01 1524.37 1509.83 1523.5 1512.5C1521.14 1519.72 1481.86 1549.7 1457.12 1559.23C1410.58 1577.15 1370.32 1579.8 1310.5 1568.89C1255.27 1558.82 1241.71 1560.7 1196.45 1584.75C1150.42 1609.21 1125.89 1616.02 1092.84 1613.51C1063.54 1611.3 1056.48 1609.13 1008.28 1587.55C973.589 1572.01 969.107 1570.82 946.484 1571.05C925.187 1571.26 918.374 1572.98 892.82 1584.55C848.334 1604.68 833.595 1608.93 802.125 1610.65C765.738 1612.64 743.475 1607.87 713.128 1591.58C700.161 1584.61 678.389 1572.89 664.752 1565.52C628.017 1545.67 613.902 1545.39 531.809 1562.88C499.344 1569.79 447.691 1563.03 411.472 1547.13C379.534 1533.11 347.024 1510.66 351.776 1505.92C352.546 1505.15 363.367 1506.02 375.82 1507.86C401.058 1511.58 435.624 1509.58 460.258 1502.97C469.202 1500.57 491.887 1491.65 510.669 1483.16C529.451 1474.66 550.673 1465.84 557.828 1463.55C577.209 1457.37 604.841 1457.93 624.804 1464.91Z" fill="#0D6EFD"/>
</svg>
